# xmcd CD database file
#
# Track frame offsets:
#	150
#	17570
#	34060
#
# Disc length: 783 seconds
#
# Revision: 0
# Processed by: cddbd v1.5PL3 Copyright (c) Steve Scherf et al.
# Submitted via: CDex 1.51
#
DISCID=18030d03
DTITLE=PENICILLIN - 夜をぶっとばせ
DYEAR=1997
DGENRE=Rock
TTITLE0=夜をぶっとばせ
TTITLE1=QUARTER DOLL (1997 VERSION)
TTITLE2=The Flame
EXTD=YEAR: 1997
EXTT0=
EXTT1=
EXTT2=
PLAYORDER=
